<svg xmlns="http://www.w3.org/2000/svg" height="800" width="1200" viewBox="-30.0003 -59.74475 260.0026 358.4685"><g fill="#fefefe"><path d="M94.69 4.379c6.38-.165 12.79-.145 19.094.908 12.561 1.759 24.737 6.154 35.62 12.65 14.12 8.48 26.062 20.591 34.153 34.952 10.191 17.716 14.253 38.826 11.55 59.068-1.785 14.076-6.902 27.698-14.692 39.553-12.613 19.242-32.29 33.816-54.512 39.89-23.99 6.817-50.64 3.744-72.384-8.497-23.898-13.127-41.81-36.9-47.238-63.683-2.518-10.935-2.639-22.331-1.14-33.418 1.353-7.58 3.113-15.149 6.21-22.227 9.139-22.383 27.188-40.918 49.242-50.797 4.832-2.257 9.934-3.86 15.036-5.386C81.888 5.849 88.263 4.8 94.69 4.379m-3.985 4.145c-3.563.446-7.138.888-10.63 1.756-3.257.831-6.575 1.474-9.7 2.756a87.171 87.171 0 00-19.427 9.371C31.75 34.443 17.357 53.882 11.423 75.751c-.964 4.09-2.149 8.155-2.446 12.365-1.093 7.986-.976 16.12.056 24.11 2.716 19.797 12.136 38.625 26.453 52.584 7.673 7.782 16.896 13.952 26.79 18.547 13.57 6.147 28.63 8.918 43.493 8.123 1.997-.418 4.05-.237 6.046-.615 10.248-1.29 20.299-4.258 29.534-8.906 21.817-10.717 39.002-30.43 46.578-53.532.828-2.603 1.905-5.13 2.551-7.789.928-3.973 1.495-8.026 1.792-12.091.028-2.399.048-4.797.33-7.183.208-3.085-.414-6.15-.342-9.243-.82-8.087-2.39-16.15-5.315-23.754-6.998-19.226-20.716-35.897-38.138-46.598-17.165-10.726-37.99-15.406-58.1-13.245z"/><path d="M28.042 80.716c2.318-.932 4.953 2.374 3.07 4.254-1.186 1.651-4.014 1.298-4.773-.586-.936-1.443.458-3.01 1.703-3.668z"/><path d="M40.41 82.222c3.476-1.755 7.774-1.594 11.233.12 2.454 1.07 4.623 3.154 5.238 5.826 14.622.144 29.253.06 43.875.1a49.67 49.67 0 00.008 3.282c-.711.04-1.422.068-2.133.105.112 6.997-.16 13.983-.193 20.977-1.679.084-3.358.06-5.037.024.112-3.7.092-7.4.136-11.095-1.687.016-3.374-.044-5.057-.004-1.005 1.088-1.772 2.519-3.294 2.968-2.25.98-4.564-1.353-4.528-3.563-.317-1.92 1.62-3.47 3.395-3.479 3.278-.06 6.584.254 9.85-.188-.028-1.888.032-3.78.144-5.664-5.146.052-10.295-.02-15.441.08-.016 7.042-.382 14.08-.225 21.13a74.261 74.261 0 00-5.094-.004c-.036-1.876 0-3.752.04-5.628-2.495 1.273-5.632 1.587-8.147.205-2.832-1.64-4.848-4.52-5.523-7.713 1.916-.59 4.041-1.828 4.415-3.981.305-1.221-.354-2.422-1.205-3.254-1.354-1.543-3.604-.639-5.38-.868.117 2.242.238 4.5.005 6.741-2.117-.1-4.234.036-6.351.044-1.282.06-2.676-.213-3.797.57.057.507.125 1.013.193 1.52 3.407.875 7.143.533 10.308 2.245.787.414 1.59.996 1.908 1.864.354 3.089-1.45 6.33-4.358 7.52-4.138 1.803-8.987.594-12.554-1.937.755-.984 1.623-1.88 2.406-2.844 2.732 1.057 5.998 2.182 8.73.519.952-.346.538-1.463.538-2.214-3.125-.972-6.668-.731-9.537-2.523-1.494-.948-2.892-2.703-2.205-4.559.028-1.776 1.301-3.234 2.884-3.9 1.896-1.013 4.102-.676 6.162-.692.017-.77.029-1.546.049-2.313-4.013-.053-8.027-.004-12.036-.029.069 7.059-.032 14.117.016 21.17-1.514.037-3.028.02-4.539.093-.169-7.026-.088-14.06-.12-21.09-1.226-.478-2.696-.044-4.018-.22-.016 2.128.133 4.265-.088 6.386-3.684-.02-7.44-.229-11.075.446-.064.735-.398 1.98.65 2.141 3.038.338 6.364-.707 9.196.804 2.161 1.153 2.454 3.88 2.43 6.074.077 1.603-.904 2.984-1.84 4.19-1.273 1.478-3.84.863-4.856 2.619.14.992 1.084 1.542 1.787 2.137-.94 1.032-1.74 2.177-2.707 3.185-1.928-1.397-3.551-3.225-4.56-5.395-1.952-.132-4.029-1.152-4.86-3-.286-1.322-.515-3.053.699-3.993 1.064-1.101 2.824-.924 4.15-.458 1.365.426 2.056 1.848 3.358 2.382 1.88.261 3.362-1.274 3.936-2.929-2.31-2.386-5.873-1.647-8.797-2.418-1.868-.341-3.238-2.1-3.33-3.965-.032-1.35-.193-3.025 1.04-3.925 2.455-2.414 6.118-2.233 9.308-2.277-.085-.647.092-1.37-.233-1.96-3.286-.005-6.576-.04-9.862.024.004-1.137 0-2.274-.012-3.407 6.612-.06 13.228.052 19.836-.084.683-2.6 2.656-4.785 5.07-5.918m-.241 6.042c3.88.097 7.76-.044 11.641-.048-.478-2.503-3.113-3.84-5.487-3.716-2.57-.253-5.652.944-6.154 3.764m28.212 3.399c.474 2.233.92 4.684-.028 6.857-.55 1.418-1.868 2.29-2.888 3.338.606.888 1.337 2.009 2.546 2 2.025.294 4.018-1.168 4.66-3.056.912-2.973.539-6.106.599-9.163l-4.889.024zm63.595-10.192a21.402 21.402 0 002.76 1.595c-1.049 1.992-3.117 3.214-5.214 3.832-3.206 1.105-7.014-.84-8.171-3.989.835-.474 1.763-1.088 2.74-1.092.923.634 1.807 1.458 2.98 1.562 1.86.374 3.644-.61 4.905-1.908zm-25.822 6.693c4.347-1.587 10.039 1.53 10.264 6.359-.165 2.117-.418 4.535-2.13 6.013.86.84 1.985 1.631 2.166 2.909.337 1.86.76 4.017-.647 5.564-3.081 4.499-10.553 4.342-13.746.068-.724-.936-.92-2.141-1.214-3.258 1.009-.639 2.013-1.286 3.025-1.924.518 1.386 1.141 2.928 2.555 3.623 1.201.731 2.96.74 3.893-.434 1.333-1.213.88-3.157.831-4.744-.747-1.98-3.23-1.08-4.828-1.321.04-.92.084-1.836.12-2.752 2.342.45 4.27-1.66 4.785-3.748-.105-1.29-1.41-2.153-2.648-1.957-1.711-.381-2.398 1.856-3.957 1.909-.883-.434-1.61-1.13-2.398-1.708.177-2.185 1.82-4.057 3.929-4.6zm11.345.032c22.684-.032 45.369-.044 68.05.008a45.438 45.438 0 00-.013 3.39c-1.325.02-2.647-.016-3.969-.024.069 7.046-.036 14.088.049 21.134-1.64.04-3.286.12-4.913-.088.096-3.575-.149-7.15-.177-10.726-.49.109-.956.281-1.394.522-2.338 1.286-4.897 2.134-7.155 3.568-.723-1.23-1.277-2.543-1.952-3.8.828-.519 1.84-.848 2.479-1.615-.615-.876-1.732-1.53-2.82-1.218-1.687.519-3.178 2.174-2.949 4.026.008 2.506 2.33 3.972 3.877 5.603-.595 1.262-1.25 2.491-1.908 3.72-2.993-1.783-5.536-4.535-6.532-7.925-.454-2.355-.39-4.994 1.06-7.014 1.326-2.37 4.134-3.616 6.79-3.415 2.855.02 5.402 1.506 7.64 3.145a28.085 28.085 0 012.623-1.076c-.016-1.595-.032-3.19.084-4.78-7.106-.093-14.216-.013-21.323-.033.109 7.034-.116 14.072.049 21.102-1.6.105-3.206.06-4.805.04.004-1.976.056-3.956.113-5.933-3.298.868-7.227 1.687-10.2-.51-2.366-1.522-2.655-4.571-3.04-7.102 3.096.064 5.286-4.299 3.04-6.552-1.603-1.808-4.218-.804-6.307-1.173-.04 7.07-.028 14.148.028 21.222-1.574-.036-3.15-.028-4.72-.132.169-6.99-.024-13.984.097-20.978a278.478 278.478 0 01-3.664-.036c.133 7.034-.048 14.072.096 21.11-1.695.137-3.398.088-5.097.056.08-3.868.124-7.74.024-11.61a51.664 51.664 0 01-3.712.085c.008-1.53.008-3.057.08-4.583 1.238.004 2.475.004 3.716-.008-.028-1.675-.068-3.347-.008-5.022-1.084.02-2.165.048-3.246.052.028-1.144.045-2.29.008-3.43m27.61 3.358c.55 1.848.438 3.82.313 5.72-.28 1.856-1.582 3.214-3.1 4.178 1.144 2.913 6.226 3.077 7.354.049 1.242-3.162.55-6.629.72-9.935-1.764.02-3.523.016-5.287-.012z"/></g><g fill="#02164f"><path d="M91.099.446C94.104.22 97.133.26 100.14 0c3.62.33 7.275.125 10.87.723 13.952 1.53 27.578 5.986 39.658 13.128 6.319 3.644 12.131 8.135 17.567 12.983 2.29 2.407 4.856 4.556 6.905 7.179 5.15 5.58 9.36 11.975 13.1 18.567.972 2.125 2.253 4.094 3.029 6.311 2.627 5.206 4.198 10.842 5.857 16.406a132.118 132.118 0 012.715 16.426c.225 5.29.201 10.585 0 15.876-.622 5.736-1.498 11.46-2.908 17.064-1.024 2.796-1.559 5.749-2.696 8.505-5.435 15.144-14.678 28.89-26.605 39.693-2.434 2.27-5.037 4.346-7.624 6.44-2.965 1.851-5.645 4.165-8.798 5.711-5.628 3.52-11.746 6.179-17.948 8.5-2.652.784-5.267 1.676-7.918 2.455-6.062 1.314-12.16 2.68-18.383 2.82-3.86.462-7.765.402-11.641.221-2.17-.365-4.395-.104-6.552-.55-1.394-.245-2.824-.153-4.206-.478-4.306-.972-8.73-1.515-12.92-2.949-4.63-1.538-9.343-2.964-13.673-5.254-3.728-1.462-7.087-3.672-10.602-5.552-5.732-3.792-11.36-7.797-16.26-12.642-11.699-10.999-20.697-24.87-25.795-40.099-.558-1.386-1.06-2.796-1.35-4.266A97.692 97.692 0 01.095 95.346C.179 90.108 1.16 84.938 1.971 79.78c2.193-9.942 5.62-19.656 10.69-28.51 1.04-2.237 2.63-4.141 3.776-6.318 5.86-8.42 12.573-16.37 20.768-22.605 3.692-3.101 7.705-5.78 11.81-8.287 1.913-.832 3.515-2.226 5.476-2.94 6.295-3.21 12.895-5.882 19.76-7.597C79.746 1.92 85.443 1.221 91.099.446m3.591 3.933c-6.427.421-12.802 1.47-19.061 3.013-5.102 1.526-10.204 3.129-15.036 5.386C38.539 22.657 20.49 41.192 11.35 63.575c-3.097 7.078-4.857 14.646-6.21 22.227-1.499 11.087-1.378 22.483 1.14 33.418 5.427 26.782 23.34 50.556 47.238 63.683 21.744 12.24 48.394 15.314 72.384 8.497 22.223-6.074 41.899-20.648 54.512-39.89 7.79-11.855 12.907-25.477 14.691-39.553 2.704-20.242-1.358-41.352-11.55-59.068-8.09-14.36-20.033-26.472-34.153-34.953-10.882-6.495-23.058-10.89-35.62-12.65-6.302-1.052-12.714-1.072-19.093-.907z"/><path d="M90.705 8.524c20.11-2.16 40.935 2.52 58.1 13.245 17.422 10.701 31.14 27.372 38.138 46.598 2.925 7.605 4.495 15.667 5.315 23.754-.072 3.093.55 6.158.341 9.243-.28 2.386-.3 4.784-.329 7.183-.297 4.065-.864 8.118-1.792 12.091-.646 2.66-1.723 5.186-2.55 7.79-7.577 23.102-24.762 42.814-46.579 53.531-9.235 4.648-19.286 7.617-29.534 8.906-1.996.378-4.05.197-6.046.615-14.863.795-29.923-1.976-43.493-8.123-9.894-4.595-19.117-10.765-26.79-18.547-14.317-13.96-23.737-32.787-26.453-52.584-1.032-7.99-1.149-16.124-.056-24.11.297-4.21 1.482-8.276 2.446-12.365 5.934-21.87 20.327-41.308 39.525-53.344a87.171 87.171 0 0119.427-9.371c3.125-1.282 6.443-1.925 9.7-2.756 3.492-.868 7.067-1.31 10.63-1.756m-9.822 3.76c-13.312 2.993-25.958 8.975-36.596 17.54-11.65 9.234-20.973 21.406-26.794 35.093-1.442 3.177-2.41 6.54-3.672 9.79 44.442-.009 88.883-.057 133.317-.318 13.144-.008 26.288-.072 39.436-.044-4.222-14.78-12.658-28.269-23.693-38.93-11.28-10.83-25.376-18.748-40.57-22.524-13.509-3.423-27.814-3.523-41.428-.607m-52.84 68.432c-1.246.659-2.64 2.225-1.704 3.668.76 1.884 3.587 2.237 4.772.586 1.884-1.88-.751-5.186-3.069-4.254m12.369 1.506c-2.414 1.133-4.387 3.319-5.07 5.918-6.608.136-13.224.024-19.836.084.012 1.133.016 2.27.012 3.407 3.286-.065 6.576-.029 9.862-.025.325.59.148 1.314.233 1.96-3.19.045-6.853-.136-9.308 2.278-1.233.9-1.072 2.575-1.04 3.925.092 1.864 1.462 3.624 3.33 3.965 2.924.771 6.487.032 8.797 2.418-.574 1.655-2.056 3.19-3.936 2.929-1.302-.534-1.993-1.956-3.359-2.382-1.325-.466-3.085-.643-4.15.458-1.213.94-.984 2.671-.698 3.993.831 1.848 2.908 2.868 4.86 3 1.009 2.17 2.632 3.998 4.56 5.395.968-1.008 1.767-2.153 2.707-3.185-.703-.595-1.647-1.145-1.787-2.137 1.016-1.756 3.583-1.141 4.856-2.62.936-1.205 1.917-2.586 1.84-4.19.024-2.193-.269-4.92-2.43-6.073-2.832-1.51-6.158-.466-9.195-.804-1.049-.16-.715-1.406-.651-2.14 3.635-.676 7.391-.467 11.075-.447.221-2.12.072-4.258.088-6.387 1.322.177 2.792-.257 4.018.221.032 7.03-.049 14.064.12 21.09 1.51-.072 3.025-.056 4.54-.092-.049-7.054.052-14.112-.017-21.17 4.01.024 8.023-.025 12.036.028-.02.767-.032 1.542-.049 2.313-2.06.016-4.266-.321-6.162.691-1.583.667-2.856 2.125-2.884 3.901-.687 1.856.71 3.611 2.205 4.56 2.869 1.791 6.412 1.55 9.537 2.522 0 .751.414 1.868-.538 2.214-2.732 1.663-5.998.538-8.73-.519-.783.964-1.65 1.86-2.406 2.844 3.567 2.531 8.416 3.74 12.554 1.937 2.908-1.19 4.712-4.431 4.358-7.52-.317-.868-1.12-1.45-1.908-1.864-3.165-1.712-6.901-1.37-10.308-2.246a65.327 65.327 0 01-.193-1.518c1.121-.784 2.515-.51 3.797-.57 2.117-.009 4.234-.145 6.35-.045.234-2.241.113-4.5-.003-6.74 1.775.228 4.025-.676 5.379.867.851.832 1.51 2.033 1.205 3.254-.374 2.153-2.499 3.39-4.415 3.98.675 3.195 2.691 6.075 5.523 7.714 2.515 1.382 5.652 1.068 8.147-.205-.04 1.876-.076 3.752-.04 5.628 1.7-.052 3.394-.06 5.094.004-.157-7.05.209-14.088.225-21.13 5.146-.1 10.295-.028 15.441-.08a76.107 76.107 0 00-.144 5.664c-3.266.442-6.572.128-9.85.188-1.776.008-3.712 1.56-3.395 3.48-.036 2.209 2.278 4.543 4.528 3.562 1.522-.45 2.29-1.88 3.294-2.968 1.683-.04 3.37.02 5.057.004-.044 3.696-.024 7.395-.136 11.095 1.679.036 3.358.06 5.037-.024.032-6.994.305-13.98.193-20.977.711-.037 1.422-.065 2.133-.105a49.67 49.67 0 01-.008-3.282c-14.622-.04-29.253.044-43.875-.1-.615-2.672-2.784-4.757-5.238-5.825-3.46-1.715-7.757-1.876-11.232-.12m91.566-.752c-1.261 1.298-3.045 2.282-4.905 1.908-1.173-.104-2.057-.928-2.98-1.562-.977.004-1.905.618-2.74 1.092 1.157 3.15 4.965 5.094 8.17 3.99 2.098-.62 4.166-1.84 5.215-3.833a21.402 21.402 0 01-2.76-1.595m-25.822 6.693c-2.109.542-3.752 2.414-3.929 4.6.788.578 1.515 1.273 2.398 1.707 1.56-.053 2.246-2.29 3.957-1.909 1.238-.196 2.543.667 2.648 1.957-.515 2.089-2.443 4.198-4.785 3.748-.036.916-.08 1.832-.12 2.752 1.599.24 4.081-.66 4.828 1.321.049 1.587.502 3.531-.831 4.744-.932 1.173-2.692 1.165-3.893.434-1.414-.695-2.037-2.237-2.555-3.623-1.012.638-2.016 1.285-3.025 1.924.294 1.117.49 2.322 1.214 3.258 3.193 4.274 10.665 4.43 13.746-.068 1.406-1.547.984-3.704.647-5.564-.18-1.278-1.306-2.069-2.165-2.909 1.711-1.478 1.964-3.896 2.129-6.013-.225-4.829-5.917-7.946-10.264-6.36m11.344.033c.037 1.14.02 2.286-.008 3.43 1.08-.004 2.162-.032 3.246-.052-.06 1.675-.02 3.347.008 5.022-1.241.012-2.478.012-3.716.008-.072 1.526-.072 3.053-.08 4.583a52.022 52.022 0 003.712-.084c.1 3.868.056 7.74-.024 11.61 1.699.031 3.402.08 5.097-.057-.144-7.038.037-14.076-.096-21.11 1.221.02 2.442.032 3.664.036-.12 6.994.072 13.988-.097 20.978 1.57.104 3.146.096 4.72.132-.056-7.074-.068-14.152-.028-21.222 2.09.37 4.704-.635 6.307 1.173 2.246 2.253.056 6.616-3.04 6.552.385 2.53.674 5.58 3.04 7.102 2.973 2.197 6.902 1.378 10.2.51a224.835 224.835 0 00-.113 5.933c1.599.02 3.206.065 4.805-.04-.165-7.03.06-14.068-.049-21.102 7.107.02 14.217-.06 21.323.033-.116 1.59-.1 3.185-.084 4.78-.892.313-1.768.675-2.623 1.076-2.238-1.639-4.785-3.125-7.64-3.145-2.656-.2-5.464 1.045-6.79 3.415-1.45 2.02-1.514 4.66-1.06 7.014.996 3.39 3.539 6.142 6.532 7.925.658-1.229 1.313-2.458 1.908-3.72-1.547-1.63-3.869-3.097-3.877-5.603-.229-1.852 1.262-3.507 2.949-4.026 1.088-.313 2.205.342 2.82 1.218-.639.767-1.651 1.096-2.479 1.614.675 1.258 1.23 2.571 1.952 3.8 2.258-1.433 4.817-2.281 7.155-3.567a5.211 5.211 0 011.394-.522c.028 3.575.273 7.15.177 10.726 1.627.209 3.274.128 4.913.088-.085-7.046.02-14.088-.049-21.134 1.322.008 2.644.044 3.97.024a45.438 45.438 0 01.011-3.39c-22.68-.052-45.365-.04-68.05-.008m-103.54 36.58C19.16 142.8 30.335 158.94 45.13 170.438c7.72 6.058 16.498 10.722 25.73 14.016 4.35 1.49 8.83 2.539 13.324 3.503 4.062.811 8.203 1.028 12.32 1.382 3.664-.008 7.348.18 10.996-.273 7.725-.418 15.321-2.242 22.632-4.72 13.289-4.644 25.42-12.49 35.19-22.617 9.673-10.07 16.985-22.411 21.126-35.752-5.736-.068-11.473.008-17.21-.056-2.944-.173-5.892-.117-8.84-.137-14.33 0-28.655-.145-42.984-.209-7.367.097-14.727-.189-22.09-.249-15.534-.277-31.069-.128-46.603-.317-11.59-.097-23.179-.052-34.764-.233z"/><path d="M40.17 88.264c.502-2.82 3.583-4.017 6.154-3.764 2.374-.124 5.01 1.213 5.487 3.716-3.88.004-7.76.145-11.641.048zm28.212 3.399l4.889-.024c-.06 3.057.313 6.19-.599 9.163-.642 1.888-2.635 3.35-4.66 3.057-1.209.008-1.94-1.113-2.546-2 1.02-1.05 2.338-1.921 2.888-3.34.948-2.172.502-4.623.028-6.856zm76.727-.109c1.764.028 3.523.032 5.287.012-.17 3.306.522 6.773-.72 9.935-1.128 3.028-6.21 2.864-7.355-.049 1.519-.964 2.82-2.322 3.101-4.177.125-1.9.237-3.873-.313-5.72zm10.649 113.363c3.901-.514 8.075-.341 11.61 1.563 3.692 1.9 6.35 5.52 7.315 9.533.968 4.025.948 8.319-.165 12.316-1.157 4.174-4.25 7.79-8.279 9.42-2.973 1.27-6.283 1.37-9.46 1.113-4.435-.422-8.725-2.856-11.031-6.725-2.772-4.527-2.957-10.159-2.061-15.26 1.044-5.962 5.953-11.204 12.071-11.96m.78 5.946c-2.873.795-5.074 3.286-5.789 6.146-.848 3.354-.864 6.99.257 10.284 1.129 3.245 4.262 5.816 7.77 5.837 2.972.273 6.02-1.125 7.7-3.6 1.671-2.466 2.013-5.572 1.952-8.48-.108-2.852-.658-5.957-2.771-8.046-2.274-2.463-5.998-2.973-9.12-2.141zm-146.473-5.544a331.31 331.31 0 016.613 0c.02 11.007 0 22.018.012 33.025-2.214.012-4.423.008-6.633.004.008-11.011-.012-22.018.008-33.029zm56.236-.004c2.141 0 4.286-.044 6.428.028.004 10.995-.013 21.99.008 32.98-1.977.04-3.953.033-5.93.029-.012-1.077-.016-2.153-.028-3.226-1.832 2.278-4.6 3.985-7.604 3.844-3.491.109-6.7-2.165-8.328-5.158-1.69-3.08-1.836-6.74-1.49-10.163.305-2.92 1.534-5.857 3.893-7.7 2.233-1.897 5.358-2.363 8.17-1.845 1.917.394 3.48 1.647 4.901 2.92-.048-3.904-.02-7.808-.02-11.709M59.3 219.166c-1.546.655-2.711 2.109-3.1 3.736-.507 2.02-.419 4.15-.113 6.198.277 1.828 1.37 3.608 3.093 4.387 1.675.67 3.788.462 5.09-.876 1.86-1.683 2.193-4.37 2.117-6.74-.105-2-.406-4.218-1.909-5.685-1.301-1.37-3.45-1.667-5.178-1.02zm19.286-13.863c2.129.004 4.258 0 6.383.008.012 1.94.012 3.877 0 5.817-2.125.008-4.254 0-6.38.008a85.575 85.575 0 01-.003-5.833zm101.508.02c2.133-.024 4.27-.024 6.407 0 .02 1.928.02 3.86-.004 5.793-2.133.02-4.27.02-6.407 0-.02-1.933-.02-3.865.004-5.793zm12.538.024c2.14-.072 4.282-.044 6.423-.028.016 11.01.012 22.018.004 33.025-2.145.004-4.29.024-6.431-.02.02-10.991.008-21.986.004-32.977zM33.81 214.221c2.953-.683 6.416-.337 8.71 1.816 1.86 1.84 2.016 4.6 2.077 7.066.024 5.073-.016 10.147.016 15.225-2.145.04-4.29.024-6.44.016-.112-5.48.273-10.987-.26-16.446-.302-2.997-4.159-3.893-6.36-2.306-1.956 1.064-2.322 3.45-2.39 5.471-.064 4.423.008 8.85-.036 13.277-2.141.016-4.287.024-6.428-.008.028-7.994-.008-15.988.016-23.982 1.997-.013 3.993 0 5.986-.013.036 1.053.036 2.11.04 3.166 1.466-1.386 3.037-2.816 5.07-3.282zm60.68.783c2.86-1.321 6.105-1.149 9.17-.964 2.652.221 5.66 1.442 6.609 4.138 1.639 6.608-1.101 13.799 1.82 20.166-2.174-.012-4.351.072-6.525-.06a71.71 71.71 0 00-.662-2.294c-1.712 1.426-3.688 2.707-5.966 2.916-2.406.225-5.057-.004-6.973-1.623-2.937-2.326-3.319-7.174-.824-9.946 1.51-1.703 3.82-2.322 5.961-2.804 2.45-.494 4.91-.968 7.312-1.683.108-1.193.088-2.66-1.033-3.387-1.317-.783-2.96-.65-4.43-.538-1.543.173-2.379 1.627-2.981 2.888-1.945-.293-3.873-.679-5.817-.988.695-2.362 2.045-4.708 4.338-5.82m3.254 13.746c-1.615.57-2.362 2.68-1.334 4.097 1.374 2.298 4.797 1.912 6.56.286 1.872-1.423 1.427-4.018 1.503-6.07-2.242.558-4.552.9-6.729 1.687zm29.755-14.494c3.02-.76 6.608-.394 8.93 1.864 1.76 1.844 1.944 4.551 1.976 6.97-.004 5.081.012 10.167-.012 15.249-2.14.016-4.286.024-6.427-.008-.112-5.524.297-11.075-.27-16.575-.413-3.093-4.575-3.756-6.672-1.92-1.82 1.257-1.98 3.66-2.064 5.672-.049 4.27-.004 8.544-.016 12.819-2.142.048-4.287.02-6.428.016.016-8.002-.056-16.004.036-24.007 1.993.008 3.985 0 5.978.008.004 1.02.004 2.045.048 3.07 1.462-1.298 2.973-2.66 4.921-3.158zm-48.945.088c2.125-.008 4.254 0 6.384-.008.088 8.003.024 16.005.032 24.007-2.145.016-4.29.02-6.432-.02.024-7.99-.004-15.984.016-23.979zm101.549-.015c2.13.02 4.258.024 6.387-.005.053 8.007.02 16.013.016 24.019a569.9 569.9 0 01-6.419 0c-.008-8.006-.032-16.012.016-24.015z"/></g><path d="M80.883 12.284c13.614-2.916 27.92-2.816 41.429.607 15.193 3.776 29.289 11.694 40.569 22.524 11.035 10.661 19.47 24.15 23.693 38.93-13.148-.028-26.292.036-39.436.044-44.434.261-88.875.31-133.317.317 1.262-3.25 2.23-6.612 3.672-9.79 5.821-13.686 15.145-25.858 26.794-35.093 10.638-8.564 23.284-14.546 36.596-17.539zM13.958 124.776c11.585.18 23.175.136 34.764.233 15.534.189 31.069.04 46.603.317 7.363.06 14.723.346 22.09.25 14.33.063 28.654.208 42.983.208 2.949.02 5.897-.036 8.842.137 5.736.064 11.473-.012 17.21.056-4.142 13.34-11.454 25.681-21.127 35.752-9.77 10.127-21.901 17.973-35.19 22.617-7.311 2.478-14.907 4.302-22.632 4.72-3.648.454-7.332.265-10.995.273-4.118-.354-8.26-.57-12.32-1.382-4.496-.964-8.975-2.013-13.325-3.503-9.232-3.294-18.01-7.958-25.73-14.016-14.795-11.497-25.97-27.637-31.173-45.662z" fill="#f37022"/></svg>