<?xml version="1.0" encoding="utf-8"?>
<!-- Generator: Adobe Illustrator 26.0.3, SVG Export Plug-In . SVG Version: 6.00 Build 0)  -->
<svg version="1.0" id="Layer_1" xmlns="http://www.w3.org/2000/svg" xmlns:xlink="http://www.w3.org/1999/xlink" x="0px" y="0px"
	 viewBox="0 0 356 268" style="enable-background:new 0 0 356 268;" xml:space="preserve">
<style type="text/css">
	.st0{fill:#8DC750;}
	.st1{fill:#FFCB0B;}
	.st2{fill:#49C8F5;}
	.st3{fill:#0751A0;}
</style>
<path class="st0" d="M110.1,51.4c13.2-8.5,51.1-7.2,64.6,6.5c-7-5.2-41.6-14.3-65.6-5.1"/>
<path class="st0" d="M174.5,57.2c5.1-7.3,43.1-16.4,67-7.6C211.1,42.7,183.3,56.2,174.5,57.2"/>
<path class="st0" d="M135.1,127.2c-2-5.1-3.8-11-8.6-27.7C120.6,79.3,110,57.2,109.2,53c-2.1,13,8.8,27.6,14.2,47.4
	c3.8,14,6.4,28.2,11.5,30.3h0.1l0,0l0.2,0.1c0.3,0.1,0.6,0.1,1,0.2c1.7,0.2,3.3,0.2,5,0c21.8-3.4,52.2-6.1,73,0.1
	c2.7-12.2,24.8-76.3,27.2-81.4c-11.9,18.7-24,56.7-28,79.8C196.2,123.8,154.8,123.6,135.1,127.2"/>
<path class="st1" d="M178.3,67.4c3.2-0.3,6.3,1.4,7.7,4.3c0.4,0.8,3.8,2,3.6,3.9c-0.1,1.5-5.1,3.7-7.8,9.6c-0.2,0.5-0.8,0.9-0.9,4
	c-0.6,2.2-1.3,4.4-2.2,6.5c-2.9,5.4-2.3,9.7-3.3,11.1c-1.7,2.3-3,1.8-3.3,1.3c-0.7-1-1.8-0.9-2.3-1.9c-0.1-0.9-0.1-1.9-0.1-2.8
	c0-0.3,0.1-0.7,0.1-1.1s0-0.7,0-1.1c0.1-1,0.3-2,0.4-3c0-0.6,0-1.3,0-2c0-0.3,0-0.7,0-1s0-0.6-0.1-0.8s-0.1-0.5-0.2-0.7
	c-0.1-0.4-0.1-0.8-0.2-1.1c-0.1-0.5-0.3-1.1-0.3-1.6c0-0.4,0.1-0.8,0.2-1.1c0-0.7-0.1-1.3-0.1-2v-1.1c0-0.3,0-0.5,0-0.8
	c-0.1-0.3-0.2-0.5-0.3-0.8c-0.2-0.4-0.2-0.8-0.4-1.1l-0.3-0.4c-0.2-0.3-0.3-0.5-0.4-0.8c-0.3-0.6-1.2-2.6-1.5-3.7
	c-0.4-1.3,1.8-2,3-3.6s1.8-7.7,8.5-8.1"/>
<path class="st2" d="M141.2,63.6c2.8,0.4,11.3,3.6,14,5.3c0.4,0.2,0.9,0.5,1.3,0.8c0.8,0.6,1.6,1.2,2.3,1.9l1.3,1.3
	c0.4,0.4,0.9,0.6,1.4,1l0.4,0.5c0.4,0.4,0.8,0.8,1.2,1.3c0.2,0.3,0.4,0.7,0.6,1.1l0.4,0.6c0.1,0.2,0.2,0.4,0.3,0.7s0.3,0.4,0.4,0.7
	l0.4,0.6c0.2,0.2,0.3,0.5,0.5,0.7s0.3,0.6,0.4,0.8c0.2,0.2,0.3,0.4,0.4,0.7c0.2,0.4,0.3,0.8,0.4,1.2s0.3,0.5,0.4,0.8
	c0.1,0.2,0.2,0.8,0.3,1.2l0.3,0.7c0.1,0.4,0.2,0.8,0.3,1.2c0.1,0.2,0.1,0.4,0.2,0.6s0.1,0.5,0.1,0.8s0.2,0.8,0.3,1.2s0.1,0.7,0.1,1
	s0.2,0.7,0.3,1s0.1,0.5,0.1,0.7c0.1,0.4,0.2,0.8,0.3,1.2c0.1,0.4,0.1,0.7,0.2,1c0,0.3,0.2,0.7,0.2,1.1c0,0.5,0,1,0,1.5
	c0,0.4-0.3,3.7-0.5,5c0,0-0.1,2.6-0.1,3.5c-0.2,0.6-0.1,1.3,0.3,1.8c0,0.1,0.3-0.1,0.3,0c0.7,0.6,1.8,1,2.1,1.6c0,0,0.1,0.1,0.1,0.2
	c0.2,0.8-0.8,2.8-1.2,3.3c-1.1,1.4-3.2,2.9-7.3,3.9c-7.8,3.5-10.5,3.1-11.1,3c-6.7-1.8-10.5-8.8-11.8-10.4c0.5,0.6-1.7-1-1.7-3.8
	c0.1-2.8,2.3-4.4,3-4.9c1.7-2.6-4.5-3.3-11.1-10.7c-1.7-1.9-2.4-6.1,3.5-7.8c0.5-1.5-9.5-4.2-12-11.4
	C120.5,63.9,125,60.3,141.2,63.6"/>
<path class="st0" d="M231.4,54.3c1.1,2-2.6,7.9-16.1,22.4c0.1-0.1-4.2,5.7-5.4,7.5s-1.1,5.1-3.9,9.7c2.1-3.6-2,2.8-13.6,13.6
	c-2.3,2.1-20.7,22.2-19.3,9.1c0.1-0.6,1-1.6,1.3-3.3s-1.3-2.6,0.7-6.1c1-1.1,1.1-4.6,1.5-6.2c1.2-5.1,4.1-9.6,7-13.9
	c0.9-1.3,1.9-2.6,3-3.8c11.4-12.5,13.8-12.1,24.6-23s17.4-10.8,20-6"/>
<path class="st3" d="M131.3,71.1c2.8-3.3,9-4.1,15.5-3.6c7.3,0.6,14,3.5,18,7.8c7.9,8.3,7.4,21,6,29.8c5.4-9.7,1.7-19.9,11.8-27.2
	c0.6-0.4,1.9,0.9,1.5,1.3c-5.7,6.2-5.3,19-12.4,28.4c-0.2,0.2-1.8-0.4-1.4-1c-0.3,0.9-1,0.4-1.7,0c-0.6-0.3-1-1-0.8-1.7
	c1.7-11.5-0.2-22.6-9.8-30.1c-3-2.3-10-4.5-16.9-4.1c-2.6,0.1-4.8,0.6-6,1.8c-2.4,2.4,11.1,6.3,11.3,9.8c0.1,3.2-4.9,3.6-5.2,4.8
	c-0.4,1.6,12.2,4.7,12.1,8.1c-0.2,2.8-4.4,3.6-4.5,4.8c-0.2,2.6,4.6,3.4,7.6,11.4c0.1,0.2,0,1.3-0.5,1.5s-1.8-0.9-2.4-1.6
	c-5.1-6.4-9.3-6.1-9.2-8.9c0.2-3.3,4.1-4.9,5.5-6.6c-2.3-3.7-13.4-5.4-12.4-9.6c0.8-3.3,4.6-3.1,4.8-4.4c0.2-1-3-2.2-6-4
	C132.7,75.9,129.4,73.4,131.3,71.1"/>
<path class="st3" d="M180.5,86.3c1.3-2,7.5-9,19-17.3c4.2-3.1,16.5-12.6,22.5-9.1c3.6,2.1-10.1,13.5-11.9,15.3
	c-1,1.1-2.2,5.8-4.7,9.2c-2.9,3.9-20.9,24.1-28.1,29.3c-0.8,0.6-1.7,1.2-2.1,0.9c-0.3-0.2-0.6-0.4-0.8-0.7c-0.4-0.4,0.6-1.9,1.1-2.7
	c1.9-2.8,23.2-22.5,24-25.4s2.8-7.7,13.3-16.7c4.5-3.9,7.9-6.9,6.4-7.7c-0.7-0.3-2.8,0-5.7,1.7c-5.2,3-12.2,8.6-13.8,9.7
	c-2.4,1.7-12.4,11.6-15.4,14.2c-1.5,1.3-2.8,2-3.6,1.9c-0.2,0-0.2-0.3-0.3-0.4s-0.5,0-0.6-0.2C179.9,87.5,180.1,86.8,180.5,86.3"/>
<path class="st3" d="M178,74.7c2.2,0,1.9,2.8-0.2,2.8C176.1,77.5,176.3,74.7,178,74.7"/>
<path class="st3" d="M173.2,77.4c0.2-0.6,1.7-4.1,4.4-4c2.8,0.1,3,1.1,3.5,1.8c1.1,1.2,2.6,1.9,4.2,2.1c0.8,0,0.6-0.8,0.2-1.4
	c-0.3-0.6-0.8-1.2-1.4-1.7c-0.4-0.3-0.6-3.6-4.8-3.9c-2.4-0.2-6.3,1.5-6.7,6.8C172.7,77.7,172.8,78.1,173.2,77.4"/>
<path class="st3" d="M264,143h-0.3l-5,25.1l-11.2-25.2c-1.1,0.1-2.1,0.2-3.2,0.3s-2.1,0.1-3.2,0.1s-2.1,0-3-0.1s-1.9-0.1-2.9-0.3
	l-0.3,1.4c1.1,0.1,1.8,0.5,2,0.9c0.3,1,0.3,2,0,2.9l-4.1,20.1l-2,10h-0.8l0,0c-0.1,0-0.3,0-0.4,0c-0.7,0-1.4-0.2-1.9-0.7
	c-0.6-0.9-1-1.8-1.1-2.9l-5.3-27.5l-0.3-1.8c-0.1-0.7-0.2-1.5-0.3-2.4c-1.1,0.1-2.2,0.2-3.2,0.3s-2,0.1-2.9,0.1s-2.1,0-3-0.1
	s-2-0.1-2.9-0.3l-0.3,1.3c0.6,0,1.2,0.1,1.7,0.4c0.3,0.2,0.5,0.6,0.4,1c0,0.2-0.1,0.5-0.2,0.7c-0.2,0.3-0.4,0.7-0.6,1
	c0,0-16.7,25.8-16.4,25.4c0,0,3.1,0.1,4.9,0.1s1.2-0.2,1.2-0.2l3.9-5.9l13.7,0.1l1.9,12.8c0.1,0,0.2,0,0.2,0
	c2.2-0.1,4.3-0.2,6.5-0.2s4.7,0.1,7.1,0c2.3-0.1,4.5,0,6.8,0.2l0.2-1.3c-1.5-0.1-2.5-0.4-2.9-1s-0.4-1.8-0.1-3.5l4.9-23.9l13.6,29.8
	h6.2l6.4-31.7l0,0h11.4l-6.3,31.6h0.2c2.5-0.3,5-0.3,7.5-0.2c1.3,0.1,2.7,0.1,4.3,0.3l0.3-1.2c-1.6-0.1-2.6-0.4-3.1-1.1
	s-0.4-2.1,0-4.4l5.1-24.9h4.5c2.2,0,3.6,0.4,4.4,1.3c0.8,0.8,1.1,2.5,1,4.8h1.2c0.1-1.6,0.2-3.4,0.4-5.1s0.5-3.7,0.8-5.9h-1
	C287.2,143,275.4,143,264,143 M208.3,163.2c-2,0.4-3.8,1.6-5.1,3.2l11.2-17.9l2,14.4C216.4,162.9,210.5,162.7,208.3,163.2
	 M203.8,171.5c-0.2,1.1-1,2.1-2,2.6c-1.6,0.7-2.6,0.5-4.6,0.5h-11.8l5.5-27.1c0.1-0.9,0.6-1.8,1.2-2.5c0.8-0.5,1.7-0.8,2.6-0.8
	l0.3-1.4c-1.5,0.2-2.8,0.3-4.1,0.4s-2.3,0.1-3.3,0.1s-2.2,0-3.3-0.1c-0.3,0-0.5-0.1-0.7-0.1l-6.3,31.8c-0.1,0.9-0.5,1.7-1.1,2.4
	c-0.7,0.6-1.5,0.9-2.4,0.9l-0.3,1.4h29.1c0.5-2.7,1.3-5.4,2.3-7.9L203.8,171.5z M172.3,143.2c-1.2,0.1-2.3,0.1-3.4,0.1
	c-1.1,0-2.2,0-3.3-0.1c-0.2,0-0.5-0.1-0.7-0.1l-6.4,31.9c-0.1,0.9-0.5,1.7-1.1,2.4c-0.7,0.5-1.5,0.9-2.4,0.9l-0.3,1.4
	c1.4-0.2,2.7-0.3,3.8-0.4s2.2-0.1,3.1-0.1c1,0,2,0,3,0.1s2.3,0.2,3.7,0.4l0.3-1.4c-0.8,0-1.5-0.3-2-0.9c-0.4-0.7-0.4-1.6-0.1-2.4
	l5.6-27.6c0.1-0.9,0.5-1.7,1.1-2.4c0.7-0.6,1.5-0.9,2.4-0.9l0.3-1.4C174.6,143,173.4,143.1,172.3,143.2 M153.9,151.3
	c0.6-2.8-0.1-4.9-2.1-6.3c-2-1.4-5.2-2.1-9.7-2.1H128l-6.4,31.9c-0.1,0.9-0.5,1.7-1.1,2.4c-0.7,0.6-1.5,0.9-2.4,0.9l-0.3,1.4h16.5
	c5.3,0,9.5-0.9,12.6-2.7c3-1.6,5.1-4.5,5.8-7.8c0.5-2.6,0.1-4.7-1.4-6.3c-1.5-1.6-3.8-2.5-7-2.8c2.4-0.5,4.7-1.5,6.5-3.1
	C152.4,155.4,153.6,153.5,153.9,151.3 M144.3,168.6c-0.3,1.9-1.4,3.5-3,4.5c-1.9,1.1-4,1.7-6.2,1.6h-5.5l2.4-11.9h5.1
	c2.7,0,4.7,0.5,5.9,1.5C144.3,165.4,144.8,167.1,144.3,168.6 M145.1,152.8c-0.3,1.7-1.3,3.2-2.8,4.1c-1.7,1-3.8,1.5-5.8,1.5h-3.7
	l2.2-10.8h4c2.4,0,4,0.4,5.1,1.3C145.2,149.9,145.6,151.4,145.1,152.8 M120.1,143.1l-0.6,0.1c-1.2,0.1-2.3,0.1-3.4,0.1
	s-2.2,0-3.4-0.1s-2.3-0.2-3.4-0.4l-0.4,1.4c0.8,0,1.5,0.3,2,0.9c0.4,0.7,0.4,1.6,0.2,2.4l-3.5,17.2c-0.9,4.4-2,7.3-3.3,8.6
	c-1.3,1.4-3.3,2.1-6,2.1s-4.4-0.7-5.2-2.1s-0.7-4.3,0.2-8.6l4.3-21.5l-0.6,0.1c-1.2,0.1-2.3,0.1-3.4,0.1c-1.1,0-2.2,0-3.3-0.1
	s-2.2-0.2-3.4-0.4l-0.3,1.4c0.8,0,1.5,0.3,2,0.9c0.4,0.7,0.4,1.6,0.2,2.3l-3.4,16.9c-1.2,6.1-1,10.3,0.8,12.7s5.5,3.5,11,3.5
	s9.7-1.2,12.4-3.5s4.8-6.6,6-12.7L120.1,143.1z M79.7,143c-1.2,0.1-2.3,0.2-3.4,0.2c-0.9,0-2-0.1-3.2-0.2l-0.7-0.1L64,183.8
	c-1.4,6.8-2.6,11.5-3.5,13.4c-0.8,1.7-2.2,3.1-4,3.9l0.4,2.9c4-0.6,7.6-2.9,9.9-6.2c2.2-3.3,4.2-9.5,6.2-19.1l6.1-29.7
	c0.2-1.2,0.6-2.3,1.3-3.2c0.6-0.7,1.5-1.1,2.4-1.2l0.4-2C82,142.7,80.8,142.9,79.7,143"/>
<path class="st3" d="M78.6,192.1l-0.2,1.2c0.6,0,1.2,0.2,1.6,0.7c0.3,0.6,0.4,1.3,0.1,1.9l-4.5,21.9c-0.1,0.7-0.4,1.4-0.9,1.9
	c-0.5,0.4-1.2,0.7-1.9,0.7l-0.2,1.1c1-0.1,1.9-0.2,2.8-0.3c0.9-0.1,1.8-0.1,2.7-0.1s1.6,0.1,2.6,0.1c0.9,0.1,2,0.2,3.1,0.3l0.2-1.1
	c-0.7,0.1-1.4-0.1-1.9-0.6c-0.3-0.6-0.4-1.3-0.2-2l1.8-8.8h5.2c0.6,0,1.1,0,1.7,0.2c0.4,0.1,0.7,0.4,0.8,0.7c0.1,0.5,0.1,1,0,1.5
	h0.9c0.1-0.9,0.2-1.6,0.4-2.3s0.2-1.4,0.3-1.9c0.1-0.6,0.2-1.2,0.4-1.9s0.4-1.5,0.6-2.4h-0.9c-0.1,0.5-0.3,1-0.7,1.4
	c-0.3,0.3-0.6,0.6-1.1,0.7c-0.6,0.1-1.2,0.2-1.8,0.2h-5.1l1.8-8.9h8.2c0.7,0,1.3,0,2,0.1c0.4,0.1,0.9,0.2,1.2,0.5
	c0.3,0.3,0.5,0.6,0.6,1c0.1,0.6,0.1,1.2,0,1.8h1c0.1-1.1,0.3-2.4,0.5-3.6c0.2-1.2,0.4-2.5,0.7-3.7 M96.8,209.4
	c-0.3,1.2-0.4,2.4-0.3,3.7c0.1,1.1,0.3,2.2,0.7,3.2c0.4,1,0.9,1.9,1.6,2.7c0.8,0.9,1.8,1.7,2.9,2.2c1.2,0.5,2.5,0.7,3.8,0.7
	c1.7,0,3.3-0.3,4.9-0.9c1.5-0.6,2.9-1.4,4.2-2.4c1.2-1,2.3-2.3,3.1-3.6c0.9-1.5,1.5-3,1.8-4.7c0.3-1.2,0.4-2.4,0.3-3.6
	c-0.1-1.1-0.3-2.2-0.7-3.2c-0.4-1-0.9-1.9-1.6-2.6c-0.8-0.9-1.8-1.7-3-2.1c-1.2-0.5-2.5-0.7-3.8-0.7c-1.7,0-3.3,0.3-4.9,0.8
	c-3.1,1.1-5.6,3.3-7.3,6.1C97.8,206.3,97.1,207.9,96.8,209.4 M109.6,201.2c0.9,0,1.8,0.2,2.5,0.7c0.7,0.5,1.3,1.3,1.7,2.1
	c0.4,1,0.7,2.1,0.7,3.2c0.1,1.4-0.1,2.9-0.4,4.3c-0.3,1.4-0.8,2.7-1.5,3.9c-0.6,1-1.5,1.9-2.5,2.5c-1,0.6-2.1,0.9-3.2,0.9
	c-0.9,0-1.8-0.2-2.5-0.7c-0.7-0.5-1.3-1.3-1.7-2.1c-0.4-1-0.7-2.2-0.7-3.3c-0.1-1.5,0.1-2.9,0.4-4.3c0.3-1.4,0.8-2.7,1.5-3.9
	c0.6-1,1.5-1.9,2.5-2.5C107.3,201.4,108.5,201.1,109.6,201.2 M122.2,209.5c-0.3,1.2-0.3,2.4-0.3,3.7c0.1,1.1,0.3,2.2,0.7,3.2
	c0.4,1,0.9,1.9,1.6,2.7c0.8,0.9,1.8,1.7,3,2.2c1.2,0.5,2.5,0.7,3.8,0.7c1.7,0,3.3-0.3,4.9-0.9c1.5-0.6,2.9-1.4,4.1-2.4
	c1.2-1,2.3-2.3,3.1-3.7c0.9-1.5,1.5-3,1.8-4.7c0.3-1.2,0.4-2.4,0.3-3.6c-0.1-1.1-0.3-2.2-0.7-3.2c-0.4-1-0.9-1.9-1.6-2.6
	c-0.8-0.9-1.8-1.7-3-2.1c-1.2-0.5-2.5-0.7-3.8-0.7c-1.7,0-3.3,0.3-4.9,0.8c-3,1.1-5.6,3.3-7.2,6.1
	C123.1,206.3,122.5,207.9,122.2,209.5 M135,201.1c0.9,0,1.8,0.2,2.5,0.7c0.7,0.5,1.3,1.3,1.6,2.1c0.4,1,0.7,2.1,0.7,3.2
	c0,1.4-0.1,2.9-0.4,4.3c-0.3,1.4-0.8,2.7-1.5,3.9c-0.6,1-1.5,1.9-2.5,2.5c-1,0.6-2.1,0.9-3.2,0.9c-0.9,0-1.8-0.2-2.5-0.7
	c-0.7-0.5-1.3-1.3-1.7-2.1c-0.5-1-0.7-2.2-0.7-3.3c-0.1-1.5,0.1-2.9,0.4-4.3c0.3-1.4,0.8-2.7,1.5-3.9c0.6-1,1.5-1.8,2.5-2.4
	C132.6,201.4,133.8,201.1,135,201.1 M149.3,198.3l-0.2,0.9c0.5,0,1,0.2,1.3,0.5c0.2,0.5,0.3,1,0.1,1.5l-3.5,17.2
	c-0.1,0.6-0.3,1.1-0.7,1.5c-0.4,0.3-0.9,0.5-1.5,0.5l-0.2,0.9h7.9c2.9,0.1,5.7-0.4,8.4-1.4c2.2-0.8,4.2-2.2,5.8-4
	c1.5-1.8,2.6-4,3-6.4c0.3-1.4,0.4-2.9,0.1-4.4c-0.2-1.2-0.7-2.4-1.4-3.5c-0.7-1-1.7-1.8-2.8-2.3c-1.1-0.5-2.3-0.8-3.4-0.9
	c-1.5-0.2-3-0.3-4.6-0.2L149.3,198.3z M155.5,201.3h0.6h0.6c1.7-0.1,3.3,0.3,4.8,1c1.2,0.6,2.1,1.7,2.5,3c0.5,1.5,0.5,3.2,0.1,4.7
	c-0.4,2.4-1.7,4.7-3.6,6.2c-2.1,1.5-4.7,2.3-7.3,2.1h-0.6c-0.2,0-0.4,0-0.6,0L155.5,201.3z M171.4,192l-0.2,1.1c0.5,0,1,0.1,1.5,0.4
	c0.3,0.2,0.6,0.6,0.7,1c0.1,0.6,0.2,1.2,0.2,1.8l2.1,25h5.4l7.9-16.1l1,16.1h5.2l13.1-26c0.2-0.4,0.5-0.8,0.8-1.2
	c0.3-0.3,0.6-0.5,0.9-0.7c0.4-0.2,0.8-0.2,1.3-0.2l0.2-1.1c-1,0.1-1.8,0.2-2.6,0.2s-1.4,0-2,0s-1.2,0-1.9,0s-1.6-0.1-2.4-0.2
	l-0.2,1.1c0.6,0,1.1,0.2,1.6,0.5c0.3,0.3,0.4,0.7,0.3,1.1c-0.1,0.2-0.1,0.5-0.2,0.8s-0.3,0.7-0.5,1.2l-8,17l-0.9-16.9
	c0-0.3,0-0.5,0-0.8c0-0.3,0.1-0.6,0.1-0.9c0.1-0.4,0.2-0.8,0.5-1.1c0.3-0.3,0.6-0.5,1-0.6c0.5-0.2,1.1-0.3,1.6-0.3l0.2-1.1
	c-1,0.1-2.1,0.2-3.1,0.2s-2.1,0.1-3.2,0.1s-1.9,0-2.8-0.1s-1.9-0.1-2.8-0.2l-0.2,1.1c0.7,0,1.4,0.2,1.9,0.6c0.4,0.4,0.7,1,0.7,1.7
	l0.3,4l-7.4,14.5l-1.3-17.8c0-0.3,0-0.7,0-1c0-0.3,0.1-0.6,0.1-0.9c0.1-0.3,0.3-0.6,0.6-0.8c0.4-0.2,0.9-0.3,1.4-0.4l0.2-1.1
	c-1,0.1-1.9,0.2-2.8,0.2s-1.7,0.1-2.5,0.1s-1.7,0-2.7-0.1S172.5,192.2,171.4,192 M206.2,209.5c-0.2,1.2-0.3,2.4-0.3,3.7
	c0.1,1.1,0.3,2.2,0.7,3.2c0.4,1,0.9,1.9,1.6,2.7c0.8,0.9,1.8,1.7,2.9,2.2c1.2,0.5,2.5,0.7,3.8,0.7c1.7,0,3.3-0.3,4.9-0.9
	c1.5-0.6,2.9-1.4,4.2-2.4c1.2-1.1,2.3-2.3,3.1-3.7c0.9-1.5,1.5-3,1.8-4.7c0.3-1.2,0.3-2.4,0.3-3.6c-0.1-1.1-0.3-2.2-0.7-3.2
	c-0.4-1-0.9-1.9-1.6-2.6c-0.8-0.9-1.9-1.7-3-2.1c-1.2-0.5-2.5-0.7-3.8-0.7c-1.7,0-3.3,0.3-4.9,0.8c-3.1,1.1-5.6,3.3-7.3,6.1
	C207.1,206.3,206.5,207.9,206.2,209.5 M218.9,201.1c0.9,0,1.8,0.2,2.5,0.7c0.7,0.5,1.3,1.3,1.7,2.1c0.4,1,0.7,2.1,0.7,3.2
	c0.1,1.4-0.1,2.9-0.4,4.3c-0.3,1.4-0.8,2.7-1.5,3.9c-0.6,1-1.5,1.9-2.5,2.5c-1,0.6-2.1,0.9-3.2,0.9c-0.9,0-1.8-0.2-2.5-0.7
	c-0.7-0.5-1.3-1.3-1.7-2.1c-0.4-1-0.7-2.2-0.7-3.3c-0.1-1.5,0.1-2.9,0.4-4.3c0.3-1.4,0.8-2.7,1.5-3.9c0.6-1,1.5-1.8,2.5-2.4
	C216.6,201.4,217.8,201.1,218.9,201.1 M234.3,198.3l-0.2,0.9c0.5,0,1,0.2,1.3,0.5c0.2,0.5,0.3,1,0.1,1.5l-3.6,17.3
	c-0.1,0.6-0.3,1.1-0.7,1.5c-0.4,0.3-1,0.5-1.5,0.6l-0.2,0.9c0.8-0.1,1.5-0.2,2.3-0.2s1.4-0.1,2.1-0.1s1.4,0,2.1,0.1s1.4,0.1,2.2,0.2
	l0.2-0.9c-0.5,0-1-0.2-1.3-0.6c-0.2-0.5-0.3-1-0.1-1.5l3.5-17.1h2.4c0.9,0,1.8,0.1,2.7,0.5c0.6,0.3,1.1,0.8,1.4,1.4
	c0.3,0.7,0.3,1.4,0.1,2.1c-0.2,0.9-0.6,1.8-1.3,2.5c-0.7,0.7-1.5,1.3-2.4,1.6c-1,0.4-2.1,0.6-3.2,0.6h-0.4c-0.1,0-0.3,0-0.4,0.1
	c-0.1,0.1-0.2,0.2-0.2,0.3c0,0.4,0.1,0.8,0.4,1.1c0.3,0.5,0.7,1.2,1.1,2.1s1,2,1.6,3.3c0.7,1.5,1.2,3,1.8,4.6l2.1-0.2
	c0.6-0.1,1.1-0.1,1.6-0.1s0.7,0,1.3,0.1s1.3,0.1,2.2,0.2l0.2-0.9h-0.2c-0.4,0-0.9-0.1-1.2-0.4c-0.4-0.3-0.7-0.7-1-1.2
	c-0.3-0.5-0.6-1.2-0.9-1.9s-0.7-1.6-1.1-2.6s-1-2.1-1.6-3.2c1.2-0.3,2.4-0.7,3.5-1.4c1-0.6,1.8-1.3,2.5-2.2c0.6-0.9,1.1-1.8,1.3-2.9
	c0.3-1.2,0.2-2.5-0.3-3.7c-0.6-1-1.6-1.7-2.8-2c-1.7-0.5-3.4-0.7-5.2-0.6L234.3,198.3z M254.3,221.5c0.8-0.1,1.5-0.2,2.3-0.2
	c0.7-0.1,1.4-0.1,2.1-0.1s1.4,0,2.1,0.1s1.4,0.1,2.2,0.2l0.2-0.9c-0.5,0-1-0.2-1.3-0.6c-0.2-0.5-0.3-1-0.1-1.5l3.6-17.4
	c0.1-0.6,0.3-1.1,0.7-1.5c0.4-0.3,0.9-0.5,1.5-0.5l0.2-0.9c-1.5,0.2-2.9,0.3-4.4,0.3c-0.7,0-1.4,0-2.1-0.1c-0.7,0-1.4-0.1-2.1-0.2
	l-0.2,0.9c0.5,0,0.9,0.2,1.3,0.5c0.2,0.5,0.3,1,0.1,1.5l-3.5,17.4c-0.1,0.6-0.3,1.1-0.7,1.5c-0.4,0.3-0.9,0.5-1.5,0.6L254.3,221.5z
	 M269.4,221.5c0.7-0.1,1.3-0.2,1.8-0.2c0.5-0.1,0.9-0.1,1.4-0.1c0.6,0,1.3,0,1.9,0.1s1.2,0.1,1.9,0.2l0.2-0.9c-0.3,0-0.7-0.1-1-0.2
	c-0.3-0.1-0.5-0.3-0.7-0.5c-0.2-0.3-0.4-0.6-0.5-0.9c-1-2.1-1.9-4.1-2.7-5.9c-0.8-1.6-1.6-3.1-2.5-4.6l7.7-7.8
	c0.4-0.4,0.9-0.8,1.5-1.1c0.5-0.2,1-0.4,1.5-0.4l0.2-0.9c-0.9,0.1-1.8,0.2-2.5,0.2s-1.3,0.1-1.8,0.1s-1.1,0-1.8-0.1
	c-0.6-0.1-1.3-0.1-2.1-0.2l-0.2,0.9c0.3,0,0.6,0.1,0.8,0.3c0.2,0.1,0.2,0.3,0.2,0.5c0,0.2-0.1,0.4-0.2,0.6c-0.1,0.2-0.3,0.4-0.5,0.6
	l-8.3,8.4c1,1.4,1.8,2.9,2.5,4.5C267.2,216,268.2,218.5,269.4,221.5 M299.5,199.3c-1-0.5-2.1-0.8-3.2-1c-1.3-0.2-2.7-0.4-4-0.4
	c-1.4,0-2.8,0.2-4.1,0.5c-1.1,0.3-2.2,0.8-3.2,1.4c-0.9,0.6-1.7,1.3-2.3,2.2c-0.6,0.8-1,1.8-1.2,2.8c-0.2,0.8-0.2,1.5,0,2.3
	c0.2,0.7,0.5,1.3,1,1.8c0.6,0.6,1.2,1.1,1.9,1.4c0.9,0.5,1.9,0.9,2.8,1.2c0.9,0.3,1.7,0.6,2.4,0.9c0.6,0.2,1.2,0.5,1.7,0.8
	c0.4,0.2,0.7,0.6,0.9,1c0.2,0.5,0.2,1,0.1,1.5c-0.2,0.6-0.5,1.2-1,1.7c-0.6,0.5-1.2,0.9-2,1.2c-0.9,0.3-1.8,0.4-2.8,0.4
	c-1.1,0-2.3-0.2-3.3-0.7c-0.9-0.4-1.6-1.1-2.1-2c-0.5-1-0.7-2-0.6-3.1h-0.7c-0.2,1-0.3,1.8-0.4,2.4s-0.2,1-0.2,1.3l-0.3,1.6
	c-0.1,0.6-0.3,1.2-0.4,1.9c1.2,0.5,2.4,0.9,3.7,1.2c1.3,0.3,2.7,0.4,4.1,0.4c1.5,0,3-0.2,4.4-0.6c1.2-0.3,2.4-0.9,3.5-1.6
	c1-0.6,1.8-1.4,2.4-2.3c0.6-0.8,1-1.7,1.2-2.7c0.2-1,0.2-2-0.2-2.9c-0.4-0.9-1.1-1.6-1.9-2.1c-1.1-0.7-2.3-1.2-3.6-1.6l-2.5-0.9
	c-0.6-0.2-1.2-0.5-1.8-0.8c-0.4-0.2-0.8-0.6-1-1c-0.2-0.4-0.2-0.9-0.1-1.4c0.1-0.6,0.4-1.2,0.9-1.7c0.5-0.5,1-0.9,1.7-1.1
	c0.8-0.3,1.6-0.4,2.4-0.4c1.1,0,2.1,0.2,3.1,0.6c1.7,0.7,2.9,2.5,2.8,4.3h0.8c0.1-1.1,0.3-2.2,0.5-3.3S299.2,200.3,299.5,199.3"/>
</svg>
