<svg xmlns="http://www.w3.org/2000/svg" height="800" width="1200" version="1.0" viewBox="-150 -250 1300 1500"><g fill="#a41d23"><path d="M0 0h1000v1000H0V0m648.86 35.78c-8.86 3.77-17.39 10.06-20.97 19.31-2.85 6.85-1.17 14.75 2.66 20.87-32.63-.02-65.26-.01-97.89 0-.01 7.41-.01 14.83 0 22.25 35.2 0 70.39 0 105.59-.01.07 5.75.03 11.5.03 17.25-23.31.03-46.62.01-69.93.01 0 7.43.01 14.86 0 22.29 6.45.51 13.59-1.65 19.42 2.08 6.9 4.94 9.24 14.2 8.1 22.27-.86 6.55-4.35 13.47-10.8 15.98-4.95 2.06-10.66-.34-13.81-4.37-4.87-6.01-5.89-14.24-4.61-21.66-9.91.08-19.81.01-29.72.04-1.42 8.14-.83 16.73 2.44 24.38 5.62 13.85 18.83 24.23 33.58 26.56 11.4 1.91 23.56-.61 33.04-7.28 10.17-6.95 17.23-18.38 18.54-30.66 1.22-9.51-1.35-19.22-6.2-27.4 6.62.01 13.25-.1 19.88.09.02 21.5-.01 42.99.02 64.49 9.41-.01 18.82 0 28.23 0 .01-34.68 0-69.36 0-104.04 6.27.02 12.55-.15 18.82.09-.13 34.65-.08 69.3.01 103.95 9.35-.01 18.7 0 28.05 0 .01-34.68 0-69.36.01-104.04 4.95-.04 9.91-.04 14.87.05.13-7.46.05-14.92.06-22.38-2.8.05-5.59.06-8.38.07 3.53-5.84 5.34-13.15 3.04-19.78-3.38-9.86-12.3-16.62-21.62-20.5-16.62-6.67-35.88-6.76-52.46.09m204.77-.41c-9.17 3.7-18.06 10.01-21.86 19.48-2.95 6.88-1.35 14.88 2.54 21.05-29.94-.03-59.88.04-89.82.05-.02 7.42-.02 14.84 0 22.26 12.48-.01 24.96-.01 37.45.05 2.1.08 4.4-.37 6.31.81 9.56 4.84 13.8 17.08 10.99 27.13-1.61 5.58-6.17 10.77-12.17 11.45-4.95.71-9.46-2.05-13.28-4.84 0-6.34-.12-12.68-.08-19.02h-28.17c.02 18.05-.05 36.09.04 54.14.18 9.95 2.39 20.65 9.37 28.15 4.3 4.74 10.79 6.8 17.05 6.73 18.73.01 37.46.1 56.19-.05-.12-7.43-.03-14.86-.05-22.29-15.01.06-30.01.09-45.01-.16-3.06-.26-7.41-.44-8.39-4.04-1.44-6.1-.91-12.44-1.03-18.65 14.08 8.95 33.3 3.89 44.42-7.55 9.76-.07 19.52-.09 29.28-.07.06 17.44-.09 34.88.08 52.31 9.33-.06 18.67-.08 28 .01.23-34.7-.01-69.41.12-104.12 5.71.02 11.43-.01 17.15.02.02 34.68-.01 69.36.01 104.05H921V98.22c3.86-.19 7.86.31 11.66-.28.12-7.31.04-14.63 0-21.94-3.01-.07-6.01-.07-9.01-.04 3.87-6.18 5.49-14.18 2.58-21.07-3.8-9.44-12.63-15.76-21.78-19.48-16.14-6.31-34.66-6.32-50.82-.04m-680.55-2.46c0 7.26-.02 14.52.01 21.78 8.68.14 18.13-1.24 25.99 3.31 6.31 3.77 7.86 11.47 10 17.93-17.37.05-34.74 0-52.11.03-.01 7.41-.01 14.83 0 22.24 3.38.01 6.76.01 10.15.01.06 19.95.02 39.91.02 59.87-3.72.01-7.45.01-11.17 0-1.18-8.52-4.72-16.69-10.39-23.19 3.49-5.73 6.38-12.09 6.71-18.89.75-9.78-2.64-19.74-9-27.18-8.53-10.19-22.07-15.68-35.26-15.14-13 .24-25.82 6.66-33.59 17.13-5.62 7.4-8.14 16.87-7.48 26.1 8.97.03 17.94-.03 26.91.04-.42-4.14.31-8.5 2.81-11.9 5-7.49 16.38-8.78 23.09-2.86 7.09 5.54 7.23 17.27.49 23.14-4.28 4.16-10.73 2.61-16.11 2.91.04 7.44-.09 14.88.07 22.31 5.12.16 10.43-.79 15.39.82 6.47 3.54 8.97 12.09 6.69 18.88-2.16 6.41-8.42 11.19-15.18 11.53-8.21.63-16.33-5.55-17.79-13.67-.73-3.27.15-6.56.78-9.77-9.55.13-19.1.02-28.66.06-1.57 16 7.06 32.21 20.86 40.3 13.24 8.08 30.59 9.03 44.57 2.26 10.61-4.98 19.15-14.26 23.04-25.33 4.4-.2 8.82-.06 13.23-.08.01 8.9-.02 17.81.01 26.72 9.39-.01 18.79 0 28.18 0 .02-34.68-.01-69.37.02-104.05 5.72-.02 11.45-.03 17.18.01 0 34.68-.01 69.36 0 104.04h28.17c.01-34.67 0-69.35 0-104.03 3.52-.05 7.05-.04 10.58-.03 0-7.44 0-14.87-.01-22.31-4.03 0-8.05.01-12.08-.01-3.09-6.88-6.2-13.75-9.15-20.69-1.87-5.14-3.73-10.58-7.78-14.45-5.53-5.6-13.63-7.74-21.29-7.84-9.3-.03-18.6 0-27.9 0m89.64 42.99c-.02 7.44-.01 14.87-.01 22.31 3.7 0 7.4-.01 11.09.01.03 23.57 0 47.14.02 70.71-.02 9.22 2.32 19.03 8.87 25.86 4.91 5.29 12.32 7.51 19.38 7.46 23.15.04 46.3.01 69.45.02 0-7.46.01-14.91-.01-22.37-17.81-.01-35.63.02-53.45-.01-4.46-.2-9.81-.19-12.97-3.89-2.98-3.97-2.77-9.22-2.99-13.93-.05-21.29.04-42.58-.05-63.87 9 .05 18-.08 27 .09 4.3-.01 7.7 3.3 9.75 6.79 4.77 7.81 6.36 18.29 1.7 26.52-3.78 6.46-13.31 8.57-19.21 3.69-2.21 8.68-4.98 17.21-7.49 25.81 13.83 5.09 30.1 2.54 41.85-6.32 8.81-6.54 15.47-16.62 16.13-27.77.83-10.4-3.44-20.47-9.37-28.79 38.22-.02 76.44-.01 114.66-.01.01 6.59 0 13.19 0 19.79-19.04.11-38.08-.22-57.12.18-9.93.06-20.28 2.19-28.21 8.5-11.81 8.91-16.04 25.45-12.33 39.42 3.21 12.19 12.93 22.19 24.69 26.48 11.3 4.29 24.42 3.47 35.08-2.23 9.95-5.23 17.65-14.77 20.12-25.79 2.04-8.11.47-16.61-2.59-24.25 6.76.14 13.52.09 20.28.06.19 20.63.03 41.26.08 61.89 9.41-.11 18.81-.02 28.22-.05.01-34.67-.02-69.33.01-103.99 4.09-.02 8.18-.01 12.28-.01.01-7.42.01-14.84 0-22.26-84.96-.01-169.91.04-254.86-.05m116.81 198.49c-47.27 26.24-85.42 68.48-106.83 118.11-18.84 43.93-24.88 93.43-15.87 140.46 2.8 14.2 6.12 28.43 11.41 41.91 1.49 4.72 6.92 3.29 10.69 3.33 27.7-.21 55.4-.29 83.09-.53 26.56.04 53.12-.63 79.67-.15 1.88-1.23 2.59-3.65 3.08-5.73 2.71-20.99 5.74-41.93 8.58-62.9 5.76-41.04 11.1-82.16 17.31-123.13.84 69.69 1.18 139.39 1.68 209.09-64.39 0-128.77 0-193.16-.01 3.69 5.38 7.56 10.62 11.14 16.07 41.55.24 83.11.09 124.67.15-2.21 1.59-4.58 2.97-6.65 4.74l.06.93-.31-.84c-25.57 18.61-46.35 43.96-58.83 73.06 5.78 2.32 11.55 4.64 17.31 7 16.61-37.93 48.57-68.98 87.22-83.98 6.08-1.78 12.53-.64 18.78-.87-.11 8.41.15 16.83.05 25.24-36.95 9.51-67.89 39.39-78.44 76.09 5.96 1.71 11.99 3.2 17.98 4.86 8.7-28.61 31.93-52.71 60.64-61.44-.05 8.27.26 16.55.04 24.82-17.43 9.7-28.2 29.75-27.43 49.6 36.42-.04 72.84-.24 109.26-.27.7-20.05-10.43-40.12-28.09-49.73-.26-8.27-.12-16.54-.22-24.8 28.71 8.78 52.35 32.28 61.38 60.91 5.95-1.68 11.93-3.3 17.89-4.98-10.92-36.69-42.33-66.08-79.36-75.37.1-8.4-.15-16.81-.03-25.21 8.36-.04 17.28-1.3 24.87 3.12 35.91 15.65 65.83 44.78 81.94 80.54 5.76-2.39 11.56-4.71 17.28-7.2-7.77-17.22-18.29-33.19-31.1-47.09-10.39-11.48-22.52-21.23-35.27-29.95 41.37-.07 82.74-.02 124.11-.03 3.79-5.4 7.53-10.83 11.29-16.25-64.41.09-128.81.27-193.21.7-.23-69.27-.71-138.54-.92-207.81l1.27 2.99c8.67 59.76 17.89 119.44 26.61 179.19.24 2.91 1.17 5.74 3.03 8.03 10.26-.87 20.58-.34 30.87-.59 46.03-.31 92.05-.4 138.08-.67 4.15.42 5.34-4.38 6.47-7.4 10.43-32.93 15.4-67.87 11.85-102.35-3.91-41.22-18.6-81.32-42.09-115.39-19.09-27.77-43.87-51.62-72.44-69.5-36.63-23.14-79.58-36.15-122.89-37.35 1.12 38.71.64 77.45.92 116.18.52 104.62.83 209.25 1.32 313.88-5.68-.63-11.4-.56-17.06.08-.67-91.64-1.37-183.28-2.03-274.91-.2-51.75-1.21-103.49-.74-155.23-38.02 1.49-75.63 12.06-108.87 30.58M154.58 773.88c-7.55.76-15.1 2.06-22.28 4.58-10.31 3.45-19.8 10.25-24.74 20.14-9.12 17.6-8.91 38.04-8.85 57.35.3 17.69-1.08 35.59 2.39 53.06 2.48 13.09 8.3 26.74 20.16 33.89 15.72 9.56 34.81 10.54 52.73 10.56 21.12-.21 43.07 1.58 63.18-6.26 10.31-3.67 19.13-11.59 23.33-21.76 8.25-18.64 7.29-39.49 7.35-59.4-.16-16.74.86-33.71-2.76-50.18-2.57-12.34-8.36-25.02-19.39-31.92-14.2-8.78-31.36-10.42-47.68-10.8-14.48-.05-28.99-.49-43.44.74m162.71-.56c.1 59.37-.21 118.75.15 178.11 12.69-.23 25.38-.04 38.08-.09v-92.38c.11-5.7.69-11.46 2.47-16.89 3.68-11.82 12.6-21.8 23.81-26.99 9.73-4.5 20.82-4.88 31.3-3.6 11.4 1.37 22.32 8.44 27.19 19 4.98 10.09 3.63 21.61 3.58 32.48.03 29.45-.06 58.91-.05 88.37 12.75 0 25.51 0 38.26-.01.01-32.78 0-65.57.01-98.36 0-13.37.73-27.14-3.92-39.92-5.23-15.51-17.17-28.73-32.28-35.1-11.02-4.49-23.13-4.36-34.82-4.81-10.07-.34-20.64.01-29.79 4.71-10.95 5.86-20.37 14.37-27.97 24.14-.1-9.57.1-19.14-.11-28.7-11.97.1-23.94.02-35.91.04m236.81 7.6c-10.25 4.53-18.1 13.69-21.72 24.23-7.19 19.09-5.7 39.82-5.9 59.83.1 15.51-.62 31.24 2.91 46.47 2.62 12.31 8.58 24.73 19.66 31.51 14.67 8.69 32.21 10.38 48.92 10.51 13.36-.13 26.74.36 40.08-.53 13.2-1.24 26.97-3.75 37.93-11.71 9.28-6.78 14.11-17.89 16.63-28.78 4.41-19.84 2.64-40.28 3.07-60.42-25.69-.18-51.39-.03-77.08-.07-.01 12.79 0 25.58 0 38.37 12.77.01 25.53-.01 38.3.01-.38 5.86-.59 12.32-4.5 17.09-4.5 5.88-12.28 7.95-19.38 7.96-14.01.02-28.02 0-42.03.01-5.99-.02-12.33-.7-17.38-4.19-5.36-3.5-8.27-9.93-8.46-16.2-.67-16.99-.19-33.99-.3-50.97.57-7.8-.65-16.43 3.84-23.31 4.12-6.4 12.06-8.97 19.35-9.05 13.67-.19 27.35-.01 41.02-.08 7.92-.25 16.93.58 22.64 6.76 4.91 5.01 5.15 12.44 5.35 19.02 12.83.03 25.67 0 38.51.02-1-16.03-3.21-33.24-13.7-46.13-6.25-7.64-15.68-11.74-24.96-14.4-17.9-4.76-36.6-3.62-54.93-3.79-16.18.11-32.95.91-47.87 7.84m211.85 1.9c-9.76 5.29-16.21 15.17-19.39 25.59-5.72 17.94-4.64 37-4.75 55.57.19 13.18-.51 26.44 1.44 39.53 1.48 10.41 4.4 20.95 10.54 29.64 6.71 9.23 17.45 14.47 28.33 17.02 14.32 3.68 29.21 3.36 43.88 3.37 13.29-.04 26.73.34 39.84-2.24 9.77-1.83 19.58-5.1 27.35-11.5 6.57-5.59 10.72-13.49 13.18-21.65 3.17-9.99 4.04-20.5 4.53-30.91-12.86.02-25.72 0-38.57.01-.49 6.72-.03 14.17-4.33 19.84-4.5 6.24-12.62 8.34-19.95 8.37-14.66-.01-29.31.04-43.97-.03-7.35-.08-15.39-2.42-19.81-8.7-3.81-5.06-3.95-11.69-4.08-17.75-.15-16.99-.18-33.98.07-50.97.33-5.99.34-12.54 4.01-17.62 4.14-5.99 11.71-8.54 18.74-8.62 14.33-.21 28.66-.03 42.99-.11 7.53-.13 16.05 1.07 21.31 7.05 5.17 5.82 4.86 14.1 5.12 21.39h38.5c-.64-15.26-2.41-31.21-10.59-44.48-5.97-9.7-16.54-15.54-27.28-18.45-18.9-5.18-38.71-3.88-58.09-4-16.67.17-34.15 1.37-49.02 9.65z"/><path d="M668.39 54.51c5.98-1.87 12.81-1.26 18.19 2.04 3.01 1.87 5.62 4.83 6.02 8.47.38 4.53-2.78 8.71-6.71 10.63-5.94.65-11.94.05-17.91.35-6.75.53-12.07-7.51-9.48-13.62 1.79-4.03 5.76-6.65 9.89-7.87zm203.1.18c8.1-2.73 18.62-1.02 23.6 6.49 3.29 5.19-.22 12.15-5.41 14.49-5.87.51-11.79.18-17.68.23-7.08 1-12.83-8.2-9.29-14.27 1.8-3.42 5.19-5.7 8.78-6.94zm-49.18 43.52c8.37.04 16.76-.09 25.14.07-.07 9.8-.02 19.61-.03 29.42-5.83.07-11.65-.01-17.47.05 1.38-10.39-1.33-21.16-7.64-29.54zM415.4 141.55c7.15-2.13 15.08 2.59 17.35 9.54 3.33 8.5-2.35 19.52-11.64 20.74-8.53 1.3-16.54-6.42-16.44-14.86-.2-6.7 4.12-13.56 10.73-15.42zm-93.08 200.7c39.86-48.14 100.08-78.93 162.58-82.14-19.2 95.59-38.44 191.16-57.57 286.76-.78 3.66-.25 9.97-5.36 10.41-47.6.15-95.21.09-142.81.18-7.02-23.78-11.06-48.58-10.28-73.42.96-51.51 20.34-102.36 53.44-141.79zm187.48-82.18c42.13 1.79 83.6 15.85 118.33 39.73 28.7 19.61 52.83 45.83 70.1 75.99 21.15 36.87 31.75 79.73 30.07 122.21-.74 19.31-4.19 38.45-9.43 57.03-47.3.65-94.6.87-141.89 1.44-2.27.31-4.52-1.13-5.1-3.35-3.77-19.78-8.27-39.45-12.37-59.18-16.56-77.96-33.21-155.9-49.71-233.87zM152.5 812.73c3.41-.97 6.99-.87 10.5-.99 13.32-.24 26.64.02 39.96-.07 6.04-.04 12.42.5 17.62 3.89 4.77 3.11 7.78 8.61 8.2 14.27.75 10.7.55 21.43.57 32.16-.03 11.7.25 23.42-.77 35.09-.52 5.62-3.35 11.17-8.15 14.31-5.09 3.45-11.43 4.09-17.42 4.08-13.67-.03-27.33.02-40.99-.03-6.77-.04-14.08-1.48-19-6.49-3.62-3.67-5.47-8.81-5.68-13.9-.57-14.02-.22-28.05-.3-42.07.07-8.98-.34-18.06 1.45-26.91 1.63-6.67 7.6-11.53 14.01-13.34z"/></g><path d="M648.86 35.78c16.58-6.85 35.84-6.76 52.46-.09 9.32 3.88 18.24 10.64 21.62 20.5 2.3 6.63.49 13.94-3.04 19.78 2.79-.01 5.58-.02 8.38-.07-.01 7.46.07 14.92-.06 22.38-4.96-.09-9.92-.09-14.87-.05-.01 34.68 0 69.36-.01 104.04-9.35 0-18.7-.01-28.05 0-.09-34.65-.14-69.3-.01-103.95-6.27-.24-12.55-.07-18.82-.09 0 34.68.01 69.36 0 104.04-9.41 0-18.82-.01-28.23 0-.03-21.5 0-42.99-.02-64.49-6.63-.19-13.26-.08-19.88-.09 4.85 8.18 7.42 17.89 6.2 27.4-1.31 12.28-8.37 23.71-18.54 30.66-9.48 6.67-21.64 9.19-33.04 7.28-14.75-2.33-27.96-12.71-33.58-26.56-3.27-7.65-3.86-16.24-2.44-24.38 9.91-.03 19.81.04 29.72-.04-1.28 7.42-.26 15.65 4.61 21.66 3.15 4.03 8.86 6.43 13.81 4.37 6.45-2.51 9.94-9.43 10.8-15.98 1.14-8.07-1.2-17.33-8.1-22.27-5.83-3.73-12.97-1.57-19.42-2.08.01-7.43 0-14.86 0-22.29 23.31 0 46.62.02 69.93-.01 0-5.75.04-11.5-.03-17.25-35.2.01-70.39.01-105.59.01-.01-7.42-.01-14.84 0-22.25 32.63-.01 65.26-.02 97.89 0-3.83-6.12-5.51-14.02-2.66-20.87 3.58-9.25 12.11-15.54 20.97-19.31m19.53 18.73c-4.13 1.22-8.1 3.84-9.89 7.87-2.59 6.11 2.73 14.15 9.48 13.62 5.97-.3 11.97.3 17.91-.35 3.93-1.92 7.09-6.1 6.71-10.63-.4-3.64-3.01-6.6-6.02-8.47-5.38-3.3-12.21-3.91-18.19-2.04zm185.24-19.14c16.16-6.28 34.68-6.27 50.82.04 9.15 3.72 17.98 10.04 21.78 19.48 2.91 6.89 1.29 14.89-2.58 21.07 3-.03 6-.03 9.01.04.04 7.31.12 14.63 0 21.94-3.8.59-7.8.09-11.66.28v104.05h-28.23c-.02-34.69.01-69.37-.01-104.05-5.72-.03-11.44 0-17.15-.02-.13 34.71.11 69.42-.12 104.12-9.33-.09-18.67-.07-28-.01-.17-17.43-.02-34.87-.08-52.31-9.76-.02-19.52 0-29.28.07-11.12 11.44-30.34 16.5-44.42 7.55.12 6.21-.41 12.55 1.03 18.65.98 3.6 5.33 3.78 8.39 4.04 15 .25 30 .22 45.01.16.02 7.43-.07 14.86.05 22.29-18.73.15-37.46.06-56.19.05-6.26.07-12.75-1.99-17.05-6.73-6.98-7.5-9.19-18.2-9.37-28.15-.09-18.05-.02-36.09-.04-54.14h28.17c-.04 6.34.08 12.68.08 19.02 3.82 2.79 8.33 5.55 13.28 4.84 6-.68 10.56-5.87 12.17-11.45 2.81-10.05-1.43-22.29-10.99-27.13-1.91-1.18-4.21-.73-6.31-.81-12.49-.06-24.97-.06-37.45-.05-.02-7.42-.02-14.84 0-22.26 29.94-.01 59.88-.08 89.82-.05-3.89-6.17-5.49-14.17-2.54-21.05 3.8-9.47 12.69-15.78 21.86-19.48m17.86 19.32c-3.59 1.24-6.98 3.52-8.78 6.94-3.54 6.07 2.21 15.27 9.29 14.27 5.89-.05 11.81.28 17.68-.23 5.19-2.34 8.7-9.3 5.41-14.49-4.98-7.51-15.5-9.22-23.6-6.49m-49.18 43.52c6.31 8.38 9.02 19.15 7.64 29.54 5.82-.06 11.64.02 17.47-.05.01-9.81-.04-19.62.03-29.42-8.38-.16-16.77-.03-25.14-.07zm-649.23-65.3c9.3 0 18.6-.03 27.9 0 7.66.1 15.76 2.24 21.29 7.84 4.05 3.87 5.91 9.31 7.78 14.45 2.95 6.94 6.06 13.81 9.15 20.69 4.03.02 8.05.01 12.08.01.01 7.44.01 14.87.01 22.31-3.53-.01-7.06-.02-10.58.03 0 34.68.01 69.36 0 104.03h-28.17c-.01-34.68 0-69.36 0-104.04-5.73-.04-11.46-.03-17.18-.01-.03 34.68 0 69.37-.02 104.05-9.39 0-18.79-.01-28.18 0-.03-8.91 0-17.82-.01-26.72-4.41.02-8.83-.12-13.23.08-3.89 11.07-12.43 20.35-23.04 25.33-13.98 6.77-31.33 5.82-44.57-2.26-13.8-8.09-22.43-24.3-20.86-40.3 9.56-.04 19.11.07 28.66-.06-.63 3.21-1.51 6.5-.78 9.77 1.46 8.12 9.58 14.3 17.79 13.67 6.76-.34 13.02-5.12 15.18-11.53 2.28-6.79-.22-15.34-6.69-18.88-4.96-1.61-10.27-.66-15.39-.82-.16-7.43-.03-14.87-.07-22.31 5.38-.3 11.83 1.25 16.11-2.91 6.74-5.87 6.6-17.6-.49-23.14-6.71-5.92-18.09-4.63-23.09 2.86-2.5 3.4-3.23 7.76-2.81 11.9-8.97-.07-17.94-.01-26.91-.04-.66-9.23 1.86-18.7 7.48-26.1 7.77-10.47 20.59-16.89 33.59-17.13 13.19-.54 26.73 4.95 35.26 15.14 6.36 7.44 9.75 17.4 9 27.18-.33 6.8-3.22 13.16-6.71 18.89 5.67 6.5 9.21 14.67 10.39 23.19 3.72.01 7.45.01 11.17 0 0-19.96.04-39.92-.02-59.87-3.39 0-6.77 0-10.15-.01-.01-7.41-.01-14.83 0-22.24 17.37-.03 34.74.02 52.11-.03-2.14-6.46-3.69-14.16-10-17.93-7.86-4.55-17.31-3.17-25.99-3.31-.03-7.26-.01-14.52-.01-21.78zm89.64 42.99c84.95.09 169.9.04 254.86.05.01 7.42.01 14.84 0 22.26-4.1 0-8.19-.01-12.28.01-.03 34.66 0 69.32-.01 103.99-9.41.03-18.81-.06-28.22.05-.05-20.63.11-41.26-.08-61.89-6.76.03-13.52.08-20.28-.06 3.06 7.64 4.63 16.14 2.59 24.25-2.47 11.02-10.17 20.56-20.12 25.79-10.66 5.7-23.78 6.52-35.08 2.23-11.76-4.29-21.48-14.29-24.69-26.48-3.71-13.97.52-30.51 12.33-39.42 7.93-6.31 18.28-8.44 28.21-8.5 19.04-.4 38.08-.07 57.12-.18 0-6.6.01-13.2 0-19.79-38.22 0-76.44-.01-114.66.01 5.93 8.32 10.2 18.39 9.37 28.79-.66 11.15-7.32 21.23-16.13 27.77-11.75 8.86-28.02 11.41-41.85 6.32 2.51-8.6 5.28-17.13 7.49-25.81 5.9 4.88 15.43 2.77 19.21-3.69 4.66-8.23 3.07-18.71-1.7-26.52-2.05-3.49-5.45-6.8-9.75-6.79-9-.17-18-.04-27-.09.09 21.29 0 42.58.05 63.87.22 4.71.01 9.96 2.99 13.93 3.16 3.7 8.51 3.69 12.97 3.89 17.82.03 35.64 0 53.45.01.02 7.46.01 14.91.01 22.37-23.15-.01-46.3.02-69.45-.02-7.06.05-14.47-2.17-19.38-7.46-6.55-6.83-8.89-16.64-8.87-25.86-.02-23.57.01-47.14-.02-70.71-3.69-.02-7.39-.01-11.09-.01 0-7.44-.01-14.87.01-22.31m152.68 65.65c-6.61 1.86-10.93 8.72-10.73 15.42-.1 8.44 7.91 16.16 16.44 14.86 9.29-1.22 14.97-12.24 11.64-20.74-2.27-6.95-10.2-11.67-17.35-9.54zm-35.87 132.84c33.24-18.52 70.85-29.09 108.87-30.58-.47 51.74.54 103.48.74 155.23.66 91.63 1.36 183.27 2.03 274.91 5.66-.64 11.38-.71 17.06-.08-.49-104.63-.8-209.26-1.32-313.88-.28-38.73.2-77.47-.92-116.18 43.31 1.2 86.26 14.21 122.89 37.35 28.57 17.88 53.35 41.73 72.44 69.5 23.49 34.07 38.18 74.17 42.09 115.39 3.55 34.48-1.42 69.42-11.85 102.35-1.13 3.02-2.32 7.82-6.47 7.4-46.03.27-92.05.36-138.08.67-10.29.25-20.61-.28-30.87.59-1.86-2.29-2.79-5.12-3.03-8.03-8.72-59.75-17.94-119.43-26.61-179.19l-1.27-2.99c.21 69.27.69 138.54.92 207.81 64.4-.43 128.8-.61 193.21-.7-3.76 5.42-7.5 10.85-11.29 16.25-41.37.01-82.74-.04-124.11.03 12.75 8.72 24.88 18.47 35.27 29.95 12.81 13.9 23.33 29.87 31.1 47.09-5.72 2.49-11.52 4.81-17.28 7.2-16.11-35.76-46.03-64.89-81.94-80.54-7.59-4.42-16.51-3.16-24.87-3.12-.12 8.4.13 16.81.03 25.21 37.03 9.29 68.44 38.68 79.36 75.37-5.96 1.68-11.94 3.3-17.89 4.98-9.03-28.63-32.67-52.13-61.38-60.91.1 8.26-.04 16.53.22 24.8 17.66 9.61 28.79 29.68 28.09 49.73-36.42.03-72.84.23-109.26.27-.77-19.85 10-39.9 27.43-49.6.22-8.27-.09-16.55-.04-24.82-28.71 8.73-51.94 32.83-60.64 61.44-5.99-1.66-12.02-3.15-17.98-4.86 10.55-36.7 41.49-66.58 78.44-76.09.1-8.41-.16-16.83-.05-25.24-6.25.23-12.7-.91-18.78.87-38.65 15-70.61 46.05-87.22 83.98-5.76-2.36-11.53-4.68-17.31-7 12.48-29.1 33.26-54.45 58.83-73.06l.31.84-.06-.93c2.07-1.77 4.44-3.15 6.65-4.74-41.56-.06-83.12.09-124.67-.15-3.58-5.45-7.45-10.69-11.14-16.07 64.39.01 128.77.01 193.16.01-.5-69.7-.84-139.4-1.68-209.09-6.21 40.97-11.55 82.09-17.31 123.13-2.84 20.97-5.87 41.91-8.58 62.9-.49 2.08-1.2 4.5-3.08 5.73-26.55-.48-53.11.19-79.67.15-27.69.24-55.39.32-83.09.53-3.77-.04-9.2 1.39-10.69-3.33-5.29-13.48-8.61-27.71-11.41-41.91-9.01-47.03-2.97-96.53 15.87-140.46 21.41-49.63 59.56-91.87 106.83-118.11m-57.21 67.86c-33.1 39.43-52.48 90.28-53.44 141.79-.78 24.84 3.26 49.64 10.28 73.42 47.6-.09 95.21-.03 142.81-.18 5.11-.44 4.58-6.75 5.36-10.41 19.13-95.6 38.37-191.17 57.57-286.76-62.5 3.21-122.72 34-162.58 82.14m187.48-82.18c16.5 77.97 33.15 155.91 49.71 233.87 4.1 19.73 8.6 39.4 12.37 59.18.58 2.22 2.83 3.66 5.1 3.35 47.29-.57 94.59-.79 141.89-1.44 5.24-18.58 8.69-37.72 9.43-57.03 1.68-42.48-8.92-85.34-30.07-122.21-17.27-30.16-41.4-56.38-70.1-75.99-34.73-23.88-76.2-37.94-118.33-39.73zM154.58 773.88c14.45-1.23 28.96-.79 43.44-.74 16.32.38 33.48 2.02 47.68 10.8 11.03 6.9 16.82 19.58 19.39 31.92 3.62 16.47 2.6 33.44 2.76 50.18-.06 19.91.9 40.76-7.35 59.4-4.2 10.17-13.02 18.09-23.33 21.76-20.11 7.84-42.06 6.05-63.18 6.26-17.92-.02-37.01-1-52.73-10.56-11.86-7.15-17.68-20.8-20.16-33.89-3.47-17.47-2.09-35.37-2.39-53.06-.06-19.31-.27-39.75 8.85-57.35 4.94-9.89 14.43-16.69 24.74-20.14 7.18-2.52 14.73-3.82 22.28-4.58m-2.08 38.85c-6.41 1.81-12.38 6.67-14.01 13.34-1.79 8.85-1.38 17.93-1.45 26.91.08 14.02-.27 28.05.3 42.07.21 5.09 2.06 10.23 5.68 13.9 4.92 5.01 12.23 6.45 19 6.49 13.66.05 27.32 0 40.99.03 5.99.01 12.33-.63 17.42-4.08 4.8-3.14 7.63-8.69 8.15-14.31 1.02-11.67.74-23.39.77-35.09-.02-10.73.18-21.46-.57-32.16-.42-5.66-3.43-11.16-8.2-14.27-5.2-3.39-11.58-3.93-17.62-3.89-13.32.09-26.64-.17-39.96.07-3.51.12-7.09.02-10.5.99zm164.79-39.41c11.97-.02 23.94.06 35.91-.04.21 9.56.01 19.13.11 28.7 7.6-9.77 17.02-18.28 27.97-24.14 9.15-4.7 19.72-5.05 29.79-4.71 11.69.45 23.8.32 34.82 4.81 15.11 6.37 27.05 19.59 32.28 35.1 4.65 12.78 3.92 26.55 3.92 39.92-.01 32.79 0 65.58-.01 98.36-12.75.01-25.51.01-38.26.01-.01-29.46.08-58.92.05-88.37.05-10.87 1.4-22.39-3.58-32.48-4.87-10.56-15.79-17.63-27.19-19-10.48-1.28-21.57-.9-31.3 3.6-11.21 5.19-20.13 15.17-23.81 26.99-1.78 5.43-2.36 11.19-2.47 16.89v92.38c-12.7.05-25.39-.14-38.08.09-.36-59.36-.05-118.74-.15-178.11zm236.81 7.6c14.92-6.93 31.69-7.73 47.87-7.84 18.33.17 37.03-.97 54.93 3.79 9.28 2.66 18.71 6.76 24.96 14.4 10.49 12.89 12.7 30.1 13.7 46.13-12.84-.02-25.68.01-38.51-.02-.2-6.58-.44-14.01-5.35-19.02-5.71-6.18-14.72-7.01-22.64-6.76-13.67.07-27.35-.11-41.02.08-7.29.08-15.23 2.65-19.35 9.05-4.49 6.88-3.27 15.51-3.84 23.31.11 16.98-.37 33.98.3 50.97.19 6.27 3.1 12.7 8.46 16.2 5.05 3.49 11.39 4.17 17.38 4.19 14.01-.01 28.02.01 42.03-.01 7.1-.01 14.88-2.08 19.38-7.96 3.91-4.77 4.12-11.23 4.5-17.09-12.77-.02-25.53 0-38.3-.01 0-12.79-.01-25.58 0-38.37 25.69.04 51.39-.11 77.08.07-.43 20.14 1.34 40.58-3.07 60.42-2.52 10.89-7.35 22-16.63 28.78-10.96 7.96-24.73 10.47-37.93 11.71-13.34.89-26.72.4-40.08.53-16.71-.13-34.25-1.82-48.92-10.51-11.08-6.78-17.04-19.2-19.66-31.51-3.53-15.23-2.81-30.96-2.91-46.47.2-20.01-1.29-40.74 5.9-59.83 3.62-10.54 11.47-19.7 21.72-24.23zm211.85 1.9c14.87-8.28 32.35-9.48 49.02-9.65 19.38.12 39.19-1.18 58.09 4 10.74 2.91 21.31 8.75 27.28 18.45 8.18 13.27 9.95 29.22 10.59 44.48h-38.5c-.26-7.29.05-15.57-5.12-21.39-5.26-5.98-13.78-7.18-21.31-7.05-14.33.08-28.66-.1-42.99.11-7.03.08-14.6 2.63-18.74 8.62-3.67 5.08-3.68 11.63-4.01 17.62-.25 16.99-.22 33.98-.07 50.97.13 6.06.27 12.69 4.08 17.75 4.42 6.28 12.46 8.62 19.81 8.7 14.66.07 29.31.02 43.97.03 7.33-.03 15.45-2.13 19.95-8.37 4.3-5.67 3.84-13.12 4.33-19.84 12.85-.01 25.71.01 38.57-.01-.49 10.41-1.36 20.92-4.53 30.91-2.46 8.16-6.61 16.06-13.18 21.65-7.77 6.4-17.58 9.67-27.35 11.5-13.11 2.58-26.55 2.2-39.84 2.24-14.67-.01-29.56.31-43.88-3.37-10.88-2.55-21.62-7.79-28.33-17.02-6.14-8.69-9.06-19.23-10.54-29.64-1.95-13.09-1.25-26.35-1.44-39.53.11-18.57-.97-37.63 4.75-55.57 3.18-10.42 9.63-20.3 19.39-25.59z" fill="#fff"/></svg>